Coordinates
version=1
nRows=13
nColumns=38
inDegrees=yes

Units are S.I. units (second, meters, Newtons, ...)
Angles are in degrees.

endheader
time	pelvis_tilt	pelvis_list	pelvis_rotation	pelvis_tx	pelvis_ty	pelvis_tz	hip_flexion_r	hip_adduction_r	hip_rotation_r	knee_angle_r	ankle_angle_r	subtalar_angle_r	mtp_angle_r	hip_flexion_l	hip_adduction_l	hip_rotation_l	knee_angle_l	ankle_angle_l	subtalar_angle_l	mtp_angle_l	lumbar_extension	lumbar_bending	lumbar_rotation	arm_flex_r	arm_add_r	arm_rot_r	elbow_flex_r	pro_sup_r	wrist_flex_r	wrist_dev_r	arm_flex_l	arm_add_l	arm_rot_l	elbow_flex_l	pro_sup_l	wrist_flex_l	wrist_dev_l
      2.22000000	     -1.06938310	     -4.28630221	      4.55358210	      0.86268765	      0.96111045	     -0.23289239	     10.69699395	      7.97594201	     -3.07282461	    -18.39641397	      8.69584244	     -3.61095064	      0.00000000	     20.96567209	     -0.23977768	      4.24047871	    -64.14635266	     -0.94550760	    -15.23817459	      0.00000000	    -10.18807205	      5.55738043	     -6.93151853	      1.60180393	     -7.82882783	     23.92470050	     48.29495692	     43.48249575	      0.00000000	      0.00000000	      5.94293792	     -4.61040417	     30.83169484	     44.39567313	     43.48249575	      0.00000000	      0.00000000
      2.23000000	     -0.89714574	     -3.92211468	      4.26245730	      0.87293117	      0.96232803	     -0.23214489	      9.64638418	      7.76640666	     -2.48998786	    -18.12569580	      9.17327593	     -3.48522878	      0.00000000	     22.01603764	     -0.03512641	      3.62674003	    -63.35676313	     -0.56402684	    -15.67159815	      0.00000000	    -10.51962110	      5.07791377	     -6.53795312	      2.46100513	     -7.79013377	     24.06429912	     48.64935755	     43.49126513	      0.00000000	      0.00000000	      5.59172840	     -4.88011503	     30.75189553	     44.24176847	     43.49126513	      0.00000000	      0.00000000
      2.24000000	     -0.75158742	     -3.59461584	      3.96435784	      0.88314415	      0.96331122	     -0.23137626	      8.61263749	      7.57938245	     -2.01795762	    -17.79893027	      9.62617382	     -3.40666744	      0.00000000	     22.92429263	      0.17298222	      3.11779098	    -62.21117203	     -0.20265955	    -16.10696600	      0.00000000	    -10.79822176	      4.61891007	     -6.09144165	      3.17524539	     -7.79199071	     24.25718700	     49.03994595	     43.49968772	      0.00000000	      0.00000000	      5.27541777	     -5.12967046	     30.65756031	     44.11289945	     43.49968772	      0.00000000	      0.00000000
      2.25000000	     -0.52527579	     -3.28345120	      3.67919544	      0.89348150	      0.96421792	     -0.23063875	      7.35094856	      7.48191802	     -1.06189132	    -17.21337624	      9.87393561	     -4.14017573	      0.00000000	     23.64303385	      0.34242527	      2.59367715	    -60.77042700	      0.11850580	    -16.52276971	      0.00000000	    -11.18205069	      4.18578816	     -5.63592917	      4.26519496	     -8.92657129	     27.98828760	     50.21973321	     43.62085909	      0.00000000	      0.00000000	      4.74322459	     -5.22766836	     29.48631507	     44.32406290	     43.62085909	      0.00000000	      0.00000000
      2.26000000	     -0.38441550	     -2.99852494	      3.38856013	      0.90360720	      0.96480245	     -0.22999365	      6.37644367	      7.27035763	     -0.74839455	    -16.97341740	     10.45694335	     -3.81961279	      0.00000000	     24.45723581	      0.45618732	      2.07437645	    -59.16092332	      0.26418353	    -16.64237141	      0.00000000	    -11.45938257	      3.79454211	     -5.19163749	      5.11729395	     -8.87496242	     28.03954605	     50.37533263	     43.63025323	      0.00000000	      0.00000000	      4.41927030	     -5.47363280	     29.39261447	     44.22394372	     43.63025323	      0.00000000	      0.00000000
      2.27000000	     -0.25349564	     -2.71744310	      3.08580297	      0.91390757	      0.96508952	     -0.22937597	      5.49428979	      7.06567515	     -0.36163475	    -16.94195044	     11.01742439	     -3.60159111	      0.00000000	     25.15861419	      0.57189951	      1.58800309	    -57.25064611	      0.59438224	    -16.59768647	      0.00000000	    -11.68562995	      3.40840754	     -4.75883531	      5.89415902	     -8.85147014	     28.14484852	     50.60203675	     43.63885427	      0.00000000	      0.00000000	      4.07980771	     -5.69981869	     29.28821321	     44.11824252	     43.63885427	      0.00000000	      0.00000000
      2.28000000	     -0.10594589	     -2.48493214	      2.79161958	      0.92419271	      0.96520541	     -0.22885035	      4.30173676	      6.96418092	      0.43668921	    -16.31417223	     11.32012965	     -4.11326208	      0.00000000	     25.79645238	      0.65019134	      1.12949491	    -55.17311118	      0.33360234	    -16.85973220	      0.00000000	    -11.94898957	      3.07956884	     -4.35255666	      6.88433711	     -9.45373477	     30.51539069	     51.19736316	     43.74736824	      0.00000000	      0.00000000	      3.49680260	     -5.76311470	     27.99558942	     44.43802376	     43.74736824	      0.00000000	      0.00000000
      2.29000000	     -0.01273315	     -2.31694318	      2.49419951	      0.93462521	      0.96499835	     -0.22831528	      3.40845257	      6.85591731	      0.74504870	    -16.19499865	     11.95383234	     -3.89840311	      0.00000000	     26.31065695	      0.65338981	      0.67715666	    -52.77712259	      0.52249629	    -16.76529160	      0.00000000	    -12.11437232	      2.82548075	     -3.90044437	      7.66875086	     -9.40848624	     30.53572058	     51.35179663	     43.75703940	      0.00000000	      0.00000000	      3.11093816	     -5.97503557	     27.88956140	     44.33553780	     43.75703940	      0.00000000	      0.00000000
      2.30000000	      0.00513942	     -2.18995587	      2.19735585	      0.94496475	      0.96444885	     -0.22785510	      2.58108639	      6.75718820	      1.15344930	    -15.96396408	     12.52861438	     -3.65291463	      0.00000000	     26.85184473	      0.60695512	      0.19476694	    -50.22510737	      0.66847158	    -16.61745144	      0.00000000	    -12.19769875	      2.61942784	     -3.45962053	      8.35897822	     -9.41820213	     30.57193204	     51.58695639	     43.76392389	      0.00000000	      0.00000000	      2.75021661	     -6.15642723	     27.79561647	     44.22833952	     43.76392389	      0.00000000	      0.00000000
      2.31000000	      0.11742326	     -2.03573838	      1.89324100	      0.95547760	      0.96387346	     -0.22748532	      1.66548645	      6.63093641	      1.54403583	    -15.83394764	     13.17562366	     -3.51215454	      0.00000000	     27.13941162	      0.60404081	     -0.24014671	    -47.39748111	      0.76115535	    -16.26346819	      0.00000000	    -12.38170683	      2.40336424	     -3.05309277	      9.02484409	     -9.43448915	     30.82376498	     52.00360340	     43.77684801	      0.00000000	      0.00000000	      2.34175489	     -6.33718170	     27.59120175	     44.12124786	     43.77684801	      0.00000000	      0.00000000
      2.32000000	      0.04502631	     -2.26562262	      1.68959694	      0.96592428	      0.96266472	     -0.22715203	      1.06191552	      6.90926541	      1.58912515	    -15.85748467	     13.70886300	     -3.53047161	      0.00000000	     27.80610352	      0.33618801	     -0.21957671	    -44.85976115	      0.47210832	    -15.88842818	      0.00000000	    -12.31539919	      2.63443245	     -2.59791203	      9.38333781	     -9.42221035	     30.81993184	     52.14153498	     43.77828096	      0.00000000	      0.00000000	      2.12623996	     -6.42942511	     27.56425852	     44.05842755	     43.77828096	      0.00000000	      0.00000000
      2.33000000	      0.08777752	     -2.04512381	      1.21920549	      0.97650103	      0.96177828	     -0.22679427	      0.17029108	      6.65976198	      2.25763384	    -15.65592165	     14.32974275	     -3.08262456	      0.00000000	     27.90932496	      0.38935378	     -0.72718661	    -41.63017774	      0.54574777	    -15.40428683	      0.00000000	    -12.44604303	      2.33464889	     -2.12144598	     10.27005917	     -9.57574263	     30.90382133	     52.64469798	     43.78532897	      0.00000000	      0.00000000	      1.52797854	     -6.59048002	     27.43723681	     43.87146722	     43.78532897	      0.00000000	      0.00000000
      2.34000000	      0.17861286	     -2.06955621	      0.87560664	      0.98714883	      0.96066404	     -0.22655346	     -0.64165050	      6.63956493	      2.38059410	    -15.69262115	     15.06364658	     -2.48479508	      0.00000000	     28.07093284	      0.18262199	     -1.23852344	    -38.58195037	      0.43905880	    -14.26452767	      0.00000000	    -12.60451500	      2.32213676	     -1.65034806	     10.70335820	    -10.45003447	     32.52367785	     54.66328987	     43.84396361	      0.00000000	      0.00000000	      0.99329657	     -6.48402271	     26.21909251	     43.89669188	     43.84396361	      0.00000000	      0.00000000
